<mxfile host="app.diagrams.net" modified="2021-03-25T17:01:10.961Z" agent="5.0 (Windows)" etag="1_mw2kyqlfLPkJVJuIor" version="14.4.9" type="github">
  <diagram id="C5RBs43oDa-KdzZeNtuy" name="Page-1">
    <mxGraphModel dx="1002" dy="683" grid="1" gridSize="10" guides="1" tooltips="1" connect="1" arrows="0" fold="1" page="1" pageScale="1" pageWidth="827" pageHeight="1169" math="0" shadow="0">
      <root>
        <mxCell id="WIyWlLk6GJQsqaUBKTNV-0" />
        <mxCell id="WIyWlLk6GJQsqaUBKTNV-1" parent="WIyWlLk6GJQsqaUBKTNV-0" />
        <mxCell id="BZG0DiaDI3Ibw-3Ss0dE-26" value="" style="edgeStyle=orthogonalEdgeStyle;rounded=0;orthogonalLoop=1;jettySize=auto;html=1;endArrow=none;endFill=0;" edge="1" parent="WIyWlLk6GJQsqaUBKTNV-1" source="BZG0DiaDI3Ibw-3Ss0dE-32" target="BZG0DiaDI3Ibw-3Ss0dE-27">
          <mxGeometry relative="1" as="geometry" />
        </mxCell>
        <mxCell id="BZG0DiaDI3Ibw-3Ss0dE-204" style="edgeStyle=orthogonalEdgeStyle;rounded=0;orthogonalLoop=1;jettySize=auto;html=1;exitX=0;exitY=0.5;exitDx=0;exitDy=0;entryX=0;entryY=0.5;entryDx=0;entryDy=0;endArrow=none;endFill=0;" edge="1" parent="WIyWlLk6GJQsqaUBKTNV-1" source="BZG0DiaDI3Ibw-3Ss0dE-27" target="BZG0DiaDI3Ibw-3Ss0dE-82">
          <mxGeometry relative="1" as="geometry">
            <Array as="points">
              <mxPoint x="70" y="173" />
              <mxPoint x="70" y="485" />
            </Array>
          </mxGeometry>
        </mxCell>
        <mxCell id="BZG0DiaDI3Ibw-3Ss0dE-27" value="Database" style="swimlane;fontStyle=1;align=center;verticalAlign=top;childLayout=stackLayout;horizontal=1;startSize=26;horizontalStack=0;resizeParent=1;resizeParentMax=0;resizeLast=0;collapsible=1;marginBottom=0;direction=east;" vertex="1" collapsed="1" parent="WIyWlLk6GJQsqaUBKTNV-1">
          <mxGeometry x="140" y="160" width="90" height="26" as="geometry">
            <mxRectangle x="100" y="110" width="160" height="112" as="alternateBounds" />
          </mxGeometry>
        </mxCell>
        <mxCell id="BZG0DiaDI3Ibw-3Ss0dE-28" value="+ field: db_connection" style="text;strokeColor=none;fillColor=none;align=left;verticalAlign=top;spacingLeft=4;spacingRight=4;overflow=hidden;rotatable=0;points=[[0,0.5],[1,0.5]];portConstraint=eastwest;" vertex="1" parent="BZG0DiaDI3Ibw-3Ss0dE-27">
          <mxGeometry y="26" width="90" height="26" as="geometry" />
        </mxCell>
        <mxCell id="BZG0DiaDI3Ibw-3Ss0dE-29" value="+ field: engine" style="text;strokeColor=none;fillColor=none;align=left;verticalAlign=top;spacingLeft=4;spacingRight=4;overflow=hidden;rotatable=0;points=[[0,0.5],[1,0.5]];portConstraint=eastwest;" vertex="1" parent="BZG0DiaDI3Ibw-3Ss0dE-27">
          <mxGeometry y="52" width="90" height="26" as="geometry" />
        </mxCell>
        <mxCell id="BZG0DiaDI3Ibw-3Ss0dE-30" value="" style="line;strokeWidth=1;fillColor=none;align=left;verticalAlign=middle;spacingTop=-1;spacingLeft=3;spacingRight=3;rotatable=0;labelPosition=right;points=[];portConstraint=eastwest;" vertex="1" parent="BZG0DiaDI3Ibw-3Ss0dE-27">
          <mxGeometry y="78" width="90" height="8" as="geometry" />
        </mxCell>
        <mxCell id="BZG0DiaDI3Ibw-3Ss0dE-31" value="+ import_df(self,dataframe,name):" style="text;strokeColor=none;fillColor=none;align=left;verticalAlign=top;spacingLeft=4;spacingRight=4;overflow=hidden;rotatable=0;points=[[0,0.5],[1,0.5]];portConstraint=eastwest;" vertex="1" parent="BZG0DiaDI3Ibw-3Ss0dE-27">
          <mxGeometry y="86" width="90" height="26" as="geometry" />
        </mxCell>
        <mxCell id="BZG0DiaDI3Ibw-3Ss0dE-147" style="edgeStyle=orthogonalEdgeStyle;rounded=0;orthogonalLoop=1;jettySize=auto;html=1;exitX=1;exitY=0.5;exitDx=0;exitDy=0;endArrow=none;endFill=0;" edge="1" parent="WIyWlLk6GJQsqaUBKTNV-1" source="BZG0DiaDI3Ibw-3Ss0dE-32" target="BZG0DiaDI3Ibw-3Ss0dE-83">
          <mxGeometry relative="1" as="geometry" />
        </mxCell>
        <mxCell id="BZG0DiaDI3Ibw-3Ss0dE-32" value="Analysis" style="swimlane;fontStyle=1;align=center;verticalAlign=top;childLayout=stackLayout;horizontal=1;startSize=26;horizontalStack=0;resizeParent=1;resizeParentMax=0;resizeLast=0;collapsible=1;marginBottom=0;direction=east;" vertex="1" collapsed="1" parent="WIyWlLk6GJQsqaUBKTNV-1">
          <mxGeometry x="517.5" y="160" width="80" height="26" as="geometry">
            <mxRectangle x="370" y="170" width="160" height="528" as="alternateBounds" />
          </mxGeometry>
        </mxCell>
        <mxCell id="BZG0DiaDI3Ibw-3Ss0dE-33" value="+ field: engine" style="text;strokeColor=none;fillColor=none;align=left;verticalAlign=top;spacingLeft=4;spacingRight=4;overflow=hidden;rotatable=0;points=[[0,0.5],[1,0.5]];portConstraint=eastwest;" vertex="1" parent="BZG0DiaDI3Ibw-3Ss0dE-32">
          <mxGeometry y="26" width="80" height="26" as="geometry" />
        </mxCell>
        <mxCell id="BZG0DiaDI3Ibw-3Ss0dE-34" value="+ field: dataset" style="text;strokeColor=none;fillColor=none;align=left;verticalAlign=top;spacingLeft=4;spacingRight=4;overflow=hidden;rotatable=0;points=[[0,0.5],[1,0.5]];portConstraint=eastwest;" vertex="1" parent="BZG0DiaDI3Ibw-3Ss0dE-32">
          <mxGeometry y="52" width="80" height="26" as="geometry" />
        </mxCell>
        <mxCell id="BZG0DiaDI3Ibw-3Ss0dE-35" value="+ field: model_id" style="text;strokeColor=none;fillColor=none;align=left;verticalAlign=top;spacingLeft=4;spacingRight=4;overflow=hidden;rotatable=0;points=[[0,0.5],[1,0.5]];portConstraint=eastwest;" vertex="1" parent="BZG0DiaDI3Ibw-3Ss0dE-32">
          <mxGeometry y="78" width="80" height="26" as="geometry" />
        </mxCell>
        <mxCell id="BZG0DiaDI3Ibw-3Ss0dE-36" value="+ field: seed" style="text;strokeColor=none;fillColor=none;align=left;verticalAlign=top;spacingLeft=4;spacingRight=4;overflow=hidden;rotatable=0;points=[[0,0.5],[1,0.5]];portConstraint=eastwest;" vertex="1" parent="BZG0DiaDI3Ibw-3Ss0dE-32">
          <mxGeometry y="104" width="80" height="26" as="geometry" />
        </mxCell>
        <mxCell id="BZG0DiaDI3Ibw-3Ss0dE-37" value="+ field: ratio" style="text;strokeColor=none;fillColor=none;align=left;verticalAlign=top;spacingLeft=4;spacingRight=4;overflow=hidden;rotatable=0;points=[[0,0.5],[1,0.5]];portConstraint=eastwest;" vertex="1" parent="BZG0DiaDI3Ibw-3Ss0dE-32">
          <mxGeometry y="130" width="80" height="26" as="geometry" />
        </mxCell>
        <mxCell id="BZG0DiaDI3Ibw-3Ss0dE-38" value="+ field: train" style="text;strokeColor=none;fillColor=none;align=left;verticalAlign=top;spacingLeft=4;spacingRight=4;overflow=hidden;rotatable=0;points=[[0,0.5],[1,0.5]];portConstraint=eastwest;" vertex="1" parent="BZG0DiaDI3Ibw-3Ss0dE-32">
          <mxGeometry y="156" width="80" height="26" as="geometry" />
        </mxCell>
        <mxCell id="BZG0DiaDI3Ibw-3Ss0dE-39" value="+ field: eval" style="text;strokeColor=none;fillColor=none;align=left;verticalAlign=top;spacingLeft=4;spacingRight=4;overflow=hidden;rotatable=0;points=[[0,0.5],[1,0.5]];portConstraint=eastwest;" vertex="1" parent="BZG0DiaDI3Ibw-3Ss0dE-32">
          <mxGeometry y="182" width="80" height="26" as="geometry" />
        </mxCell>
        <mxCell id="BZG0DiaDI3Ibw-3Ss0dE-40" value="+ field: target" style="text;strokeColor=none;fillColor=none;align=left;verticalAlign=top;spacingLeft=4;spacingRight=4;overflow=hidden;rotatable=0;points=[[0,0.5],[1,0.5]];portConstraint=eastwest;" vertex="1" parent="BZG0DiaDI3Ibw-3Ss0dE-32">
          <mxGeometry y="208" width="80" height="26" as="geometry" />
        </mxCell>
        <mxCell id="BZG0DiaDI3Ibw-3Ss0dE-41" value="+ field: catFeatures" style="text;strokeColor=none;fillColor=none;align=left;verticalAlign=top;spacingLeft=4;spacingRight=4;overflow=hidden;rotatable=0;points=[[0,0.5],[1,0.5]];portConstraint=eastwest;" vertex="1" parent="BZG0DiaDI3Ibw-3Ss0dE-32">
          <mxGeometry y="234" width="80" height="26" as="geometry" />
        </mxCell>
        <mxCell id="BZG0DiaDI3Ibw-3Ss0dE-42" value="+ field: numFeatures" style="text;strokeColor=none;fillColor=none;align=left;verticalAlign=top;spacingLeft=4;spacingRight=4;overflow=hidden;rotatable=0;points=[[0,0.5],[1,0.5]];portConstraint=eastwest;" vertex="1" parent="BZG0DiaDI3Ibw-3Ss0dE-32">
          <mxGeometry y="260" width="80" height="26" as="geometry" />
        </mxCell>
        <mxCell id="BZG0DiaDI3Ibw-3Ss0dE-43" value="+ field: bins" style="text;strokeColor=none;fillColor=none;align=left;verticalAlign=top;spacingLeft=4;spacingRight=4;overflow=hidden;rotatable=0;points=[[0,0.5],[1,0.5]];portConstraint=eastwest;" vertex="1" parent="BZG0DiaDI3Ibw-3Ss0dE-32">
          <mxGeometry y="286" width="80" height="26" as="geometry" />
        </mxCell>
        <mxCell id="BZG0DiaDI3Ibw-3Ss0dE-44" value="" style="line;strokeWidth=1;fillColor=none;align=left;verticalAlign=middle;spacingTop=-1;spacingLeft=3;spacingRight=3;rotatable=0;labelPosition=right;points=[];portConstraint=eastwest;" vertex="1" parent="BZG0DiaDI3Ibw-3Ss0dE-32">
          <mxGeometry y="312" width="80" height="8" as="geometry" />
        </mxCell>
        <mxCell id="BZG0DiaDI3Ibw-3Ss0dE-45" value="+ get_cat_feat(self)" style="text;strokeColor=none;fillColor=none;align=left;verticalAlign=top;spacingLeft=4;spacingRight=4;overflow=hidden;rotatable=0;points=[[0,0.5],[1,0.5]];portConstraint=eastwest;" vertex="1" parent="BZG0DiaDI3Ibw-3Ss0dE-32">
          <mxGeometry y="320" width="80" height="26" as="geometry" />
        </mxCell>
        <mxCell id="BZG0DiaDI3Ibw-3Ss0dE-46" value="+ get_num_feat(self)" style="text;strokeColor=none;fillColor=none;align=left;verticalAlign=top;spacingLeft=4;spacingRight=4;overflow=hidden;rotatable=0;points=[[0,0.5],[1,0.5]];portConstraint=eastwest;" vertex="1" parent="BZG0DiaDI3Ibw-3Ss0dE-32">
          <mxGeometry y="346" width="80" height="26" as="geometry" />
        </mxCell>
        <mxCell id="BZG0DiaDI3Ibw-3Ss0dE-47" value="+ drop(self)" style="text;strokeColor=none;fillColor=none;align=left;verticalAlign=top;spacingLeft=4;spacingRight=4;overflow=hidden;rotatable=0;points=[[0,0.5],[1,0.5]];portConstraint=eastwest;" vertex="1" parent="BZG0DiaDI3Ibw-3Ss0dE-32">
          <mxGeometry y="372" width="80" height="26" as="geometry" />
        </mxCell>
        <mxCell id="BZG0DiaDI3Ibw-3Ss0dE-48" value="+ train_test_split(self)" style="text;strokeColor=none;fillColor=none;align=left;verticalAlign=top;spacingLeft=4;spacingRight=4;overflow=hidden;rotatable=0;points=[[0,0.5],[1,0.5]];portConstraint=eastwest;" vertex="1" parent="BZG0DiaDI3Ibw-3Ss0dE-32">
          <mxGeometry y="398" width="80" height="26" as="geometry" />
        </mxCell>
        <mxCell id="BZG0DiaDI3Ibw-3Ss0dE-49" value="+ train_test_split(self)" style="text;strokeColor=none;fillColor=none;align=left;verticalAlign=top;spacingLeft=4;spacingRight=4;overflow=hidden;rotatable=0;points=[[0,0.5],[1,0.5]];portConstraint=eastwest;" vertex="1" parent="BZG0DiaDI3Ibw-3Ss0dE-32">
          <mxGeometry y="424" width="80" height="26" as="geometry" />
        </mxCell>
        <mxCell id="BZG0DiaDI3Ibw-3Ss0dE-50" value="+ rank(self,table_train,catFeatures,numFeatures,bins)" style="text;strokeColor=none;fillColor=none;align=left;verticalAlign=top;spacingLeft=4;spacingRight=4;overflow=hidden;rotatable=0;points=[[0,0.5],[1,0.5]];portConstraint=eastwest;" vertex="1" parent="BZG0DiaDI3Ibw-3Ss0dE-32">
          <mxGeometry y="450" width="80" height="26" as="geometry" />
        </mxCell>
        <mxCell id="BZG0DiaDI3Ibw-3Ss0dE-51" value="+ estimate(self,catFeatures,bins,numFeatures)" style="text;strokeColor=none;fillColor=none;align=left;verticalAlign=top;spacingLeft=4;spacingRight=4;overflow=hidden;rotatable=0;points=[[0,0.5],[1,0.5]];portConstraint=eastwest;" vertex="1" parent="BZG0DiaDI3Ibw-3Ss0dE-32">
          <mxGeometry y="476" width="80" height="26" as="geometry" />
        </mxCell>
        <mxCell id="BZG0DiaDI3Ibw-3Ss0dE-52" value="+ estimate(self,catFeatures,bins,numFeatures)" style="text;strokeColor=none;fillColor=none;align=left;verticalAlign=top;spacingLeft=4;spacingRight=4;overflow=hidden;rotatable=0;points=[[0,0.5],[1,0.5]];portConstraint=eastwest;" vertex="1" parent="BZG0DiaDI3Ibw-3Ss0dE-32">
          <mxGeometry y="502" width="80" height="26" as="geometry" />
        </mxCell>
        <mxCell id="BZG0DiaDI3Ibw-3Ss0dE-148" style="edgeStyle=orthogonalEdgeStyle;rounded=0;orthogonalLoop=1;jettySize=auto;html=1;exitX=1;exitY=0.5;exitDx=0;exitDy=0;endArrow=none;endFill=0;" edge="1" parent="WIyWlLk6GJQsqaUBKTNV-1" source="BZG0DiaDI3Ibw-3Ss0dE-53" target="BZG0DiaDI3Ibw-3Ss0dE-83">
          <mxGeometry relative="1" as="geometry" />
        </mxCell>
        <mxCell id="BZG0DiaDI3Ibw-3Ss0dE-53" value="Model" style="swimlane;fontStyle=1;align=center;verticalAlign=top;childLayout=stackLayout;horizontal=1;startSize=26;horizontalStack=0;resizeParent=1;resizeParentMax=0;resizeLast=0;collapsible=1;marginBottom=0;direction=east;" vertex="1" collapsed="1" parent="WIyWlLk6GJQsqaUBKTNV-1">
          <mxGeometry x="517.5" y="230" width="80" height="26" as="geometry">
            <mxRectangle x="240" y="140" width="160" height="242" as="alternateBounds" />
          </mxGeometry>
        </mxCell>
        <mxCell id="BZG0DiaDI3Ibw-3Ss0dE-54" value="+ field: analysis" style="text;strokeColor=none;fillColor=none;align=left;verticalAlign=top;spacingLeft=4;spacingRight=4;overflow=hidden;rotatable=0;points=[[0,0.5],[1,0.5]];portConstraint=eastwest;" vertex="1" parent="BZG0DiaDI3Ibw-3Ss0dE-53">
          <mxGeometry y="26" width="80" height="26" as="geometry" />
        </mxCell>
        <mxCell id="BZG0DiaDI3Ibw-3Ss0dE-55" value="+ field: catFeatures" style="text;strokeColor=none;fillColor=none;align=left;verticalAlign=top;spacingLeft=4;spacingRight=4;overflow=hidden;rotatable=0;points=[[0,0.5],[1,0.5]];portConstraint=eastwest;" vertex="1" parent="BZG0DiaDI3Ibw-3Ss0dE-53">
          <mxGeometry y="52" width="80" height="26" as="geometry" />
        </mxCell>
        <mxCell id="BZG0DiaDI3Ibw-3Ss0dE-56" value="+ field: numFeatures" style="text;strokeColor=none;fillColor=none;align=left;verticalAlign=top;spacingLeft=4;spacingRight=4;overflow=hidden;rotatable=0;points=[[0,0.5],[1,0.5]];portConstraint=eastwest;" vertex="1" parent="BZG0DiaDI3Ibw-3Ss0dE-53">
          <mxGeometry y="78" width="80" height="26" as="geometry" />
        </mxCell>
        <mxCell id="BZG0DiaDI3Ibw-3Ss0dE-57" value="+ field: model_id" style="text;strokeColor=none;fillColor=none;align=left;verticalAlign=top;spacingLeft=4;spacingRight=4;overflow=hidden;rotatable=0;points=[[0,0.5],[1,0.5]];portConstraint=eastwest;" vertex="1" parent="BZG0DiaDI3Ibw-3Ss0dE-53">
          <mxGeometry y="104" width="80" height="26" as="geometry" />
        </mxCell>
        <mxCell id="BZG0DiaDI3Ibw-3Ss0dE-58" value="+ field: bins" style="text;strokeColor=none;fillColor=none;align=left;verticalAlign=top;spacingLeft=4;spacingRight=4;overflow=hidden;rotatable=0;points=[[0,0.5],[1,0.5]];portConstraint=eastwest;" vertex="1" parent="BZG0DiaDI3Ibw-3Ss0dE-53">
          <mxGeometry y="130" width="80" height="26" as="geometry" />
        </mxCell>
        <mxCell id="BZG0DiaDI3Ibw-3Ss0dE-59" value="" style="line;strokeWidth=1;fillColor=none;align=left;verticalAlign=middle;spacingTop=-1;spacingLeft=3;spacingRight=3;rotatable=0;labelPosition=right;points=[];portConstraint=eastwest;" vertex="1" parent="BZG0DiaDI3Ibw-3Ss0dE-53">
          <mxGeometry y="156" width="80" height="8" as="geometry" />
        </mxCell>
        <mxCell id="BZG0DiaDI3Ibw-3Ss0dE-60" value="+ visualize1D(self,feature1,target)" style="text;strokeColor=none;fillColor=none;align=left;verticalAlign=top;spacingLeft=4;spacingRight=4;overflow=hidden;rotatable=0;points=[[0,0.5],[1,0.5]];portConstraint=eastwest;" vertex="1" parent="BZG0DiaDI3Ibw-3Ss0dE-53">
          <mxGeometry y="164" width="80" height="26" as="geometry" />
        </mxCell>
        <mxCell id="BZG0DiaDI3Ibw-3Ss0dE-61" value="+ visualize2D(self,numFeat,catFeat,target)" style="text;strokeColor=none;fillColor=none;align=left;verticalAlign=top;spacingLeft=4;spacingRight=4;overflow=hidden;rotatable=0;points=[[0,0.5],[1,0.5]];portConstraint=eastwest;" vertex="1" parent="BZG0DiaDI3Ibw-3Ss0dE-53">
          <mxGeometry y="190" width="80" height="26" as="geometry" />
        </mxCell>
        <mxCell id="BZG0DiaDI3Ibw-3Ss0dE-62" value="+ predict(self)" style="text;strokeColor=none;fillColor=none;align=left;verticalAlign=top;spacingLeft=4;spacingRight=4;overflow=hidden;rotatable=0;points=[[0,0.5],[1,0.5]];portConstraint=eastwest;" vertex="1" parent="BZG0DiaDI3Ibw-3Ss0dE-53">
          <mxGeometry y="216" width="80" height="26" as="geometry" />
        </mxCell>
        <mxCell id="BZG0DiaDI3Ibw-3Ss0dE-149" style="edgeStyle=orthogonalEdgeStyle;rounded=0;orthogonalLoop=1;jettySize=auto;html=1;exitX=1;exitY=0.5;exitDx=0;exitDy=0;endArrow=none;endFill=0;" edge="1" parent="WIyWlLk6GJQsqaUBKTNV-1" source="BZG0DiaDI3Ibw-3Ss0dE-63" target="BZG0DiaDI3Ibw-3Ss0dE-83">
          <mxGeometry relative="1" as="geometry" />
        </mxCell>
        <mxCell id="BZG0DiaDI3Ibw-3Ss0dE-63" value="Prediction" style="swimlane;fontStyle=1;align=center;verticalAlign=top;childLayout=stackLayout;horizontal=1;startSize=26;horizontalStack=0;resizeParent=1;resizeParentMax=0;resizeLast=0;collapsible=1;marginBottom=0;direction=east;" vertex="1" collapsed="1" parent="WIyWlLk6GJQsqaUBKTNV-1">
          <mxGeometry x="517.5" y="310" width="80" height="26" as="geometry">
            <mxRectangle x="370" y="320" width="160" height="242" as="alternateBounds" />
          </mxGeometry>
        </mxCell>
        <mxCell id="BZG0DiaDI3Ibw-3Ss0dE-64" value="+ field: model" style="text;strokeColor=none;fillColor=none;align=left;verticalAlign=top;spacingLeft=4;spacingRight=4;overflow=hidden;rotatable=0;points=[[0,0.5],[1,0.5]];portConstraint=eastwest;" vertex="1" parent="BZG0DiaDI3Ibw-3Ss0dE-63">
          <mxGeometry y="26" width="80" height="26" as="geometry" />
        </mxCell>
        <mxCell id="BZG0DiaDI3Ibw-3Ss0dE-65" value="+ field: eval" style="text;strokeColor=none;fillColor=none;align=left;verticalAlign=top;spacingLeft=4;spacingRight=4;overflow=hidden;rotatable=0;points=[[0,0.5],[1,0.5]];portConstraint=eastwest;" vertex="1" parent="BZG0DiaDI3Ibw-3Ss0dE-63">
          <mxGeometry y="52" width="80" height="26" as="geometry" />
        </mxCell>
        <mxCell id="BZG0DiaDI3Ibw-3Ss0dE-66" value="+ field: model_id" style="text;strokeColor=none;fillColor=none;align=left;verticalAlign=top;spacingLeft=4;spacingRight=4;overflow=hidden;rotatable=0;points=[[0,0.5],[1,0.5]];portConstraint=eastwest;" vertex="1" parent="BZG0DiaDI3Ibw-3Ss0dE-63">
          <mxGeometry y="78" width="80" height="26" as="geometry" />
        </mxCell>
        <mxCell id="BZG0DiaDI3Ibw-3Ss0dE-67" value="+ field: target" style="text;strokeColor=none;fillColor=none;align=left;verticalAlign=top;spacingLeft=4;spacingRight=4;overflow=hidden;rotatable=0;points=[[0,0.5],[1,0.5]];portConstraint=eastwest;" vertex="1" parent="BZG0DiaDI3Ibw-3Ss0dE-63">
          <mxGeometry y="104" width="80" height="26" as="geometry" />
        </mxCell>
        <mxCell id="BZG0DiaDI3Ibw-3Ss0dE-68" value="+ field: numFeatures" style="text;strokeColor=none;fillColor=none;align=left;verticalAlign=top;spacingLeft=4;spacingRight=4;overflow=hidden;rotatable=0;points=[[0,0.5],[1,0.5]];portConstraint=eastwest;" vertex="1" parent="BZG0DiaDI3Ibw-3Ss0dE-63">
          <mxGeometry y="130" width="80" height="26" as="geometry" />
        </mxCell>
        <mxCell id="BZG0DiaDI3Ibw-3Ss0dE-69" value="+ field: catFeatures" style="text;strokeColor=none;fillColor=none;align=left;verticalAlign=top;spacingLeft=4;spacingRight=4;overflow=hidden;rotatable=0;points=[[0,0.5],[1,0.5]];portConstraint=eastwest;" vertex="1" parent="BZG0DiaDI3Ibw-3Ss0dE-63">
          <mxGeometry y="156" width="80" height="26" as="geometry" />
        </mxCell>
        <mxCell id="BZG0DiaDI3Ibw-3Ss0dE-70" value="" style="line;strokeWidth=1;fillColor=none;align=left;verticalAlign=middle;spacingTop=-1;spacingLeft=3;spacingRight=3;rotatable=0;labelPosition=right;points=[];portConstraint=eastwest;" vertex="1" parent="BZG0DiaDI3Ibw-3Ss0dE-63">
          <mxGeometry y="182" width="80" height="8" as="geometry" />
        </mxCell>
        <mxCell id="BZG0DiaDI3Ibw-3Ss0dE-71" value="+ predict(self,eval)" style="text;strokeColor=none;fillColor=none;align=left;verticalAlign=top;spacingLeft=4;spacingRight=4;overflow=hidden;rotatable=0;points=[[0,0.5],[1,0.5]];portConstraint=eastwest;" vertex="1" parent="BZG0DiaDI3Ibw-3Ss0dE-63">
          <mxGeometry y="190" width="80" height="26" as="geometry" />
        </mxCell>
        <mxCell id="BZG0DiaDI3Ibw-3Ss0dE-72" value="+ accuracy(self)" style="text;strokeColor=none;fillColor=none;align=left;verticalAlign=top;spacingLeft=4;spacingRight=4;overflow=hidden;rotatable=0;points=[[0,0.5],[1,0.5]];portConstraint=eastwest;" vertex="1" parent="BZG0DiaDI3Ibw-3Ss0dE-63">
          <mxGeometry y="216" width="80" height="26" as="geometry" />
        </mxCell>
        <mxCell id="BZG0DiaDI3Ibw-3Ss0dE-73" value="Use" style="endArrow=open;endSize=12;dashed=1;html=1;" edge="1" parent="WIyWlLk6GJQsqaUBKTNV-1" source="BZG0DiaDI3Ibw-3Ss0dE-32" target="BZG0DiaDI3Ibw-3Ss0dE-53">
          <mxGeometry width="160" relative="1" as="geometry">
            <mxPoint x="477.5" y="260" as="sourcePoint" />
            <mxPoint x="637.5" y="260" as="targetPoint" />
          </mxGeometry>
        </mxCell>
        <mxCell id="BZG0DiaDI3Ibw-3Ss0dE-74" value="Use" style="endArrow=open;endSize=12;dashed=1;html=1;" edge="1" parent="WIyWlLk6GJQsqaUBKTNV-1" source="BZG0DiaDI3Ibw-3Ss0dE-53" target="BZG0DiaDI3Ibw-3Ss0dE-63">
          <mxGeometry width="160" relative="1" as="geometry">
            <mxPoint x="627.5" y="216" as="sourcePoint" />
            <mxPoint x="627.5" y="270" as="targetPoint" />
          </mxGeometry>
        </mxCell>
        <mxCell id="BZG0DiaDI3Ibw-3Ss0dE-198" style="edgeStyle=orthogonalEdgeStyle;rounded=0;orthogonalLoop=1;jettySize=auto;html=1;exitX=1;exitY=0.5;exitDx=0;exitDy=0;entryX=0;entryY=0.5;entryDx=0;entryDy=0;endArrow=none;endFill=0;" edge="1" parent="WIyWlLk6GJQsqaUBKTNV-1" source="BZG0DiaDI3Ibw-3Ss0dE-76" target="BZG0DiaDI3Ibw-3Ss0dE-32">
          <mxGeometry relative="1" as="geometry" />
        </mxCell>
        <mxCell id="BZG0DiaDI3Ibw-3Ss0dE-199" style="edgeStyle=orthogonalEdgeStyle;rounded=0;orthogonalLoop=1;jettySize=auto;html=1;exitX=1;exitY=0.5;exitDx=0;exitDy=0;entryX=0;entryY=0.5;entryDx=0;entryDy=0;endArrow=none;endFill=0;" edge="1" parent="WIyWlLk6GJQsqaUBKTNV-1" source="BZG0DiaDI3Ibw-3Ss0dE-76" target="BZG0DiaDI3Ibw-3Ss0dE-53">
          <mxGeometry relative="1" as="geometry" />
        </mxCell>
        <mxCell id="BZG0DiaDI3Ibw-3Ss0dE-201" style="edgeStyle=orthogonalEdgeStyle;rounded=0;orthogonalLoop=1;jettySize=auto;html=1;exitX=0.5;exitY=1;exitDx=0;exitDy=0;entryX=0;entryY=0.5;entryDx=0;entryDy=0;endArrow=none;endFill=0;" edge="1" parent="WIyWlLk6GJQsqaUBKTNV-1" source="BZG0DiaDI3Ibw-3Ss0dE-76" target="BZG0DiaDI3Ibw-3Ss0dE-151">
          <mxGeometry relative="1" as="geometry" />
        </mxCell>
        <mxCell id="BZG0DiaDI3Ibw-3Ss0dE-202" style="edgeStyle=orthogonalEdgeStyle;rounded=0;orthogonalLoop=1;jettySize=auto;html=1;exitX=1;exitY=0.5;exitDx=0;exitDy=0;entryX=0;entryY=0.5;entryDx=0;entryDy=0;endArrow=none;endFill=0;" edge="1" parent="WIyWlLk6GJQsqaUBKTNV-1" source="BZG0DiaDI3Ibw-3Ss0dE-76" target="BZG0DiaDI3Ibw-3Ss0dE-63">
          <mxGeometry relative="1" as="geometry" />
        </mxCell>
        <mxCell id="BZG0DiaDI3Ibw-3Ss0dE-76" value="Utils" style="swimlane;fontStyle=1;align=center;verticalAlign=top;childLayout=stackLayout;horizontal=1;startSize=26;horizontalStack=0;resizeParent=1;resizeParentMax=0;resizeLast=0;collapsible=1;marginBottom=0;" vertex="1" collapsed="1" parent="WIyWlLk6GJQsqaUBKTNV-1">
          <mxGeometry x="400" y="280" width="60" height="26" as="geometry">
            <mxRectangle x="145" y="228" width="160" height="138" as="alternateBounds" />
          </mxGeometry>
        </mxCell>
        <mxCell id="BZG0DiaDI3Ibw-3Ss0dE-77" value="" style="line;strokeWidth=1;fillColor=none;align=left;verticalAlign=middle;spacingTop=-1;spacingLeft=3;spacingRight=3;rotatable=0;labelPosition=right;points=[];portConstraint=eastwest;" vertex="1" parent="BZG0DiaDI3Ibw-3Ss0dE-76">
          <mxGeometry y="26" width="60" height="8" as="geometry" />
        </mxCell>
        <mxCell id="BZG0DiaDI3Ibw-3Ss0dE-78" value="+ set_connection(db):" style="text;strokeColor=none;fillColor=none;align=left;verticalAlign=top;spacingLeft=4;spacingRight=4;overflow=hidden;rotatable=0;points=[[0,0.5],[1,0.5]];portConstraint=eastwest;" vertex="1" parent="BZG0DiaDI3Ibw-3Ss0dE-76">
          <mxGeometry y="34" width="60" height="26" as="geometry" />
        </mxCell>
        <mxCell id="BZG0DiaDI3Ibw-3Ss0dE-79" value="+ get_connection(engine):" style="text;strokeColor=none;fillColor=none;align=left;verticalAlign=top;spacingLeft=4;spacingRight=4;overflow=hidden;rotatable=0;points=[[0,0.5],[1,0.5]];portConstraint=eastwest;" vertex="1" parent="BZG0DiaDI3Ibw-3Ss0dE-76">
          <mxGeometry y="60" width="60" height="26" as="geometry" />
        </mxCell>
        <mxCell id="BZG0DiaDI3Ibw-3Ss0dE-80" value="+ disconnect_connection(engine):" style="text;strokeColor=none;fillColor=none;align=left;verticalAlign=top;spacingLeft=4;spacingRight=4;overflow=hidden;rotatable=0;points=[[0,0.5],[1,0.5]];portConstraint=eastwest;" vertex="1" parent="BZG0DiaDI3Ibw-3Ss0dE-76">
          <mxGeometry y="86" width="60" height="26" as="geometry" />
        </mxCell>
        <mxCell id="BZG0DiaDI3Ibw-3Ss0dE-81" value="+ execute(desc,query,engine):" style="text;strokeColor=none;fillColor=none;align=left;verticalAlign=top;spacingLeft=4;spacingRight=4;overflow=hidden;rotatable=0;points=[[0,0.5],[1,0.5]];portConstraint=eastwest;" vertex="1" parent="BZG0DiaDI3Ibw-3Ss0dE-76">
          <mxGeometry y="112" width="60" height="26" as="geometry" />
        </mxCell>
        <mxCell id="BZG0DiaDI3Ibw-3Ss0dE-82" value="main.py" style="html=1;" vertex="1" parent="WIyWlLk6GJQsqaUBKTNV-1">
          <mxGeometry x="130" y="460" width="110" height="50" as="geometry" />
        </mxCell>
        <mxCell id="BZG0DiaDI3Ibw-3Ss0dE-83" value="sqlTemplates.py" style="html=1;" vertex="1" parent="WIyWlLk6GJQsqaUBKTNV-1">
          <mxGeometry x="647.5" y="218" width="110" height="50" as="geometry" />
        </mxCell>
        <mxCell id="BZG0DiaDI3Ibw-3Ss0dE-144" style="edgeStyle=orthogonalEdgeStyle;rounded=0;orthogonalLoop=1;jettySize=auto;html=1;exitX=0.5;exitY=0;exitDx=0;exitDy=0;endArrow=none;endFill=0;" edge="1" parent="WIyWlLk6GJQsqaUBKTNV-1" source="BZG0DiaDI3Ibw-3Ss0dE-84" target="BZG0DiaDI3Ibw-3Ss0dE-82">
          <mxGeometry relative="1" as="geometry" />
        </mxCell>
        <mxCell id="BZG0DiaDI3Ibw-3Ss0dE-84" value="constants.py" style="html=1;" vertex="1" parent="WIyWlLk6GJQsqaUBKTNV-1">
          <mxGeometry x="130" y="560" width="110" height="50" as="geometry" />
        </mxCell>
        <mxCell id="BZG0DiaDI3Ibw-3Ss0dE-203" style="edgeStyle=orthogonalEdgeStyle;rounded=0;orthogonalLoop=1;jettySize=auto;html=1;exitX=0.5;exitY=1;exitDx=0;exitDy=0;entryX=0.5;entryY=0;entryDx=0;entryDy=0;endArrow=none;endFill=0;" edge="1" parent="WIyWlLk6GJQsqaUBKTNV-1" source="BZG0DiaDI3Ibw-3Ss0dE-134" target="BZG0DiaDI3Ibw-3Ss0dE-82">
          <mxGeometry relative="1" as="geometry" />
        </mxCell>
        <mxCell id="BZG0DiaDI3Ibw-3Ss0dE-134" value="sanelib.py" style="swimlane;fontStyle=1;align=center;verticalAlign=top;childLayout=stackLayout;horizontal=1;startSize=26;horizontalStack=0;resizeParent=1;resizeParentMax=0;resizeLast=0;collapsible=1;marginBottom=0;direction=east;" vertex="1" collapsed="1" parent="WIyWlLk6GJQsqaUBKTNV-1">
          <mxGeometry x="132.5" y="284" width="105" height="26" as="geometry">
            <mxRectangle x="135" y="320" width="160" height="86" as="alternateBounds" />
          </mxGeometry>
        </mxCell>
        <mxCell id="BZG0DiaDI3Ibw-3Ss0dE-135" value="+ field: dtc" style="text;strokeColor=none;fillColor=none;align=left;verticalAlign=top;spacingLeft=4;spacingRight=4;overflow=hidden;rotatable=0;points=[[0,0.5],[1,0.5]];portConstraint=eastwest;" vertex="1" parent="BZG0DiaDI3Ibw-3Ss0dE-134">
          <mxGeometry y="26" width="105" height="26" as="geometry" />
        </mxCell>
        <mxCell id="BZG0DiaDI3Ibw-3Ss0dE-136" value="+ field: mdh" style="text;strokeColor=none;fillColor=none;align=left;verticalAlign=top;spacingLeft=4;spacingRight=4;overflow=hidden;rotatable=0;points=[[0,0.5],[1,0.5]];portConstraint=eastwest;" vertex="1" parent="BZG0DiaDI3Ibw-3Ss0dE-134">
          <mxGeometry y="52" width="105" height="26" as="geometry" />
        </mxCell>
        <mxCell id="BZG0DiaDI3Ibw-3Ss0dE-141" value="" style="line;strokeWidth=1;fillColor=none;align=left;verticalAlign=middle;spacingTop=-1;spacingLeft=3;spacingRight=3;rotatable=0;labelPosition=right;points=[];portConstraint=eastwest;" vertex="1" parent="BZG0DiaDI3Ibw-3Ss0dE-134">
          <mxGeometry y="78" width="105" height="8" as="geometry" />
        </mxCell>
        <mxCell id="BZG0DiaDI3Ibw-3Ss0dE-145" value="Use" style="endArrow=open;endSize=12;dashed=1;html=1;" edge="1" parent="WIyWlLk6GJQsqaUBKTNV-1" source="BZG0DiaDI3Ibw-3Ss0dE-134" target="BZG0DiaDI3Ibw-3Ss0dE-32">
          <mxGeometry width="160" relative="1" as="geometry">
            <mxPoint x="330" y="280" as="sourcePoint" />
            <mxPoint x="330" y="324" as="targetPoint" />
          </mxGeometry>
        </mxCell>
        <mxCell id="BZG0DiaDI3Ibw-3Ss0dE-150" style="edgeStyle=orthogonalEdgeStyle;rounded=0;orthogonalLoop=1;jettySize=auto;html=1;exitX=1;exitY=0.5;exitDx=0;exitDy=0;endArrow=none;endFill=0;" edge="1" parent="WIyWlLk6GJQsqaUBKTNV-1" source="BZG0DiaDI3Ibw-3Ss0dE-151" target="BZG0DiaDI3Ibw-3Ss0dE-196">
          <mxGeometry relative="1" as="geometry" />
        </mxCell>
        <mxCell id="BZG0DiaDI3Ibw-3Ss0dE-151" value="Analysis" style="swimlane;fontStyle=1;align=center;verticalAlign=top;childLayout=stackLayout;horizontal=1;startSize=26;horizontalStack=0;resizeParent=1;resizeParentMax=0;resizeLast=0;collapsible=1;marginBottom=0;direction=east;" vertex="1" collapsed="1" parent="WIyWlLk6GJQsqaUBKTNV-1">
          <mxGeometry x="517.5" y="390" width="80" height="26" as="geometry">
            <mxRectangle x="370" y="170" width="160" height="528" as="alternateBounds" />
          </mxGeometry>
        </mxCell>
        <mxCell id="BZG0DiaDI3Ibw-3Ss0dE-152" value="+ field: engine" style="text;strokeColor=none;fillColor=none;align=left;verticalAlign=top;spacingLeft=4;spacingRight=4;overflow=hidden;rotatable=0;points=[[0,0.5],[1,0.5]];portConstraint=eastwest;" vertex="1" parent="BZG0DiaDI3Ibw-3Ss0dE-151">
          <mxGeometry y="26" width="80" height="26" as="geometry" />
        </mxCell>
        <mxCell id="BZG0DiaDI3Ibw-3Ss0dE-153" value="+ field: dataset" style="text;strokeColor=none;fillColor=none;align=left;verticalAlign=top;spacingLeft=4;spacingRight=4;overflow=hidden;rotatable=0;points=[[0,0.5],[1,0.5]];portConstraint=eastwest;" vertex="1" parent="BZG0DiaDI3Ibw-3Ss0dE-151">
          <mxGeometry y="52" width="80" height="26" as="geometry" />
        </mxCell>
        <mxCell id="BZG0DiaDI3Ibw-3Ss0dE-154" value="+ field: model_id" style="text;strokeColor=none;fillColor=none;align=left;verticalAlign=top;spacingLeft=4;spacingRight=4;overflow=hidden;rotatable=0;points=[[0,0.5],[1,0.5]];portConstraint=eastwest;" vertex="1" parent="BZG0DiaDI3Ibw-3Ss0dE-151">
          <mxGeometry y="78" width="80" height="26" as="geometry" />
        </mxCell>
        <mxCell id="BZG0DiaDI3Ibw-3Ss0dE-155" value="+ field: seed" style="text;strokeColor=none;fillColor=none;align=left;verticalAlign=top;spacingLeft=4;spacingRight=4;overflow=hidden;rotatable=0;points=[[0,0.5],[1,0.5]];portConstraint=eastwest;" vertex="1" parent="BZG0DiaDI3Ibw-3Ss0dE-151">
          <mxGeometry y="104" width="80" height="26" as="geometry" />
        </mxCell>
        <mxCell id="BZG0DiaDI3Ibw-3Ss0dE-156" value="+ field: ratio" style="text;strokeColor=none;fillColor=none;align=left;verticalAlign=top;spacingLeft=4;spacingRight=4;overflow=hidden;rotatable=0;points=[[0,0.5],[1,0.5]];portConstraint=eastwest;" vertex="1" parent="BZG0DiaDI3Ibw-3Ss0dE-151">
          <mxGeometry y="130" width="80" height="26" as="geometry" />
        </mxCell>
        <mxCell id="BZG0DiaDI3Ibw-3Ss0dE-157" value="+ field: train" style="text;strokeColor=none;fillColor=none;align=left;verticalAlign=top;spacingLeft=4;spacingRight=4;overflow=hidden;rotatable=0;points=[[0,0.5],[1,0.5]];portConstraint=eastwest;" vertex="1" parent="BZG0DiaDI3Ibw-3Ss0dE-151">
          <mxGeometry y="156" width="80" height="26" as="geometry" />
        </mxCell>
        <mxCell id="BZG0DiaDI3Ibw-3Ss0dE-158" value="+ field: eval" style="text;strokeColor=none;fillColor=none;align=left;verticalAlign=top;spacingLeft=4;spacingRight=4;overflow=hidden;rotatable=0;points=[[0,0.5],[1,0.5]];portConstraint=eastwest;" vertex="1" parent="BZG0DiaDI3Ibw-3Ss0dE-151">
          <mxGeometry y="182" width="80" height="26" as="geometry" />
        </mxCell>
        <mxCell id="BZG0DiaDI3Ibw-3Ss0dE-159" value="+ field: target" style="text;strokeColor=none;fillColor=none;align=left;verticalAlign=top;spacingLeft=4;spacingRight=4;overflow=hidden;rotatable=0;points=[[0,0.5],[1,0.5]];portConstraint=eastwest;" vertex="1" parent="BZG0DiaDI3Ibw-3Ss0dE-151">
          <mxGeometry y="208" width="80" height="26" as="geometry" />
        </mxCell>
        <mxCell id="BZG0DiaDI3Ibw-3Ss0dE-160" value="+ field: catFeatures" style="text;strokeColor=none;fillColor=none;align=left;verticalAlign=top;spacingLeft=4;spacingRight=4;overflow=hidden;rotatable=0;points=[[0,0.5],[1,0.5]];portConstraint=eastwest;" vertex="1" parent="BZG0DiaDI3Ibw-3Ss0dE-151">
          <mxGeometry y="234" width="80" height="26" as="geometry" />
        </mxCell>
        <mxCell id="BZG0DiaDI3Ibw-3Ss0dE-161" value="+ field: numFeatures" style="text;strokeColor=none;fillColor=none;align=left;verticalAlign=top;spacingLeft=4;spacingRight=4;overflow=hidden;rotatable=0;points=[[0,0.5],[1,0.5]];portConstraint=eastwest;" vertex="1" parent="BZG0DiaDI3Ibw-3Ss0dE-151">
          <mxGeometry y="260" width="80" height="26" as="geometry" />
        </mxCell>
        <mxCell id="BZG0DiaDI3Ibw-3Ss0dE-162" value="+ field: bins" style="text;strokeColor=none;fillColor=none;align=left;verticalAlign=top;spacingLeft=4;spacingRight=4;overflow=hidden;rotatable=0;points=[[0,0.5],[1,0.5]];portConstraint=eastwest;" vertex="1" parent="BZG0DiaDI3Ibw-3Ss0dE-151">
          <mxGeometry y="286" width="80" height="26" as="geometry" />
        </mxCell>
        <mxCell id="BZG0DiaDI3Ibw-3Ss0dE-163" value="" style="line;strokeWidth=1;fillColor=none;align=left;verticalAlign=middle;spacingTop=-1;spacingLeft=3;spacingRight=3;rotatable=0;labelPosition=right;points=[];portConstraint=eastwest;" vertex="1" parent="BZG0DiaDI3Ibw-3Ss0dE-151">
          <mxGeometry y="312" width="80" height="8" as="geometry" />
        </mxCell>
        <mxCell id="BZG0DiaDI3Ibw-3Ss0dE-164" value="+ get_cat_feat(self)" style="text;strokeColor=none;fillColor=none;align=left;verticalAlign=top;spacingLeft=4;spacingRight=4;overflow=hidden;rotatable=0;points=[[0,0.5],[1,0.5]];portConstraint=eastwest;" vertex="1" parent="BZG0DiaDI3Ibw-3Ss0dE-151">
          <mxGeometry y="320" width="80" height="26" as="geometry" />
        </mxCell>
        <mxCell id="BZG0DiaDI3Ibw-3Ss0dE-165" value="+ get_num_feat(self)" style="text;strokeColor=none;fillColor=none;align=left;verticalAlign=top;spacingLeft=4;spacingRight=4;overflow=hidden;rotatable=0;points=[[0,0.5],[1,0.5]];portConstraint=eastwest;" vertex="1" parent="BZG0DiaDI3Ibw-3Ss0dE-151">
          <mxGeometry y="346" width="80" height="26" as="geometry" />
        </mxCell>
        <mxCell id="BZG0DiaDI3Ibw-3Ss0dE-166" value="+ drop(self)" style="text;strokeColor=none;fillColor=none;align=left;verticalAlign=top;spacingLeft=4;spacingRight=4;overflow=hidden;rotatable=0;points=[[0,0.5],[1,0.5]];portConstraint=eastwest;" vertex="1" parent="BZG0DiaDI3Ibw-3Ss0dE-151">
          <mxGeometry y="372" width="80" height="26" as="geometry" />
        </mxCell>
        <mxCell id="BZG0DiaDI3Ibw-3Ss0dE-167" value="+ train_test_split(self)" style="text;strokeColor=none;fillColor=none;align=left;verticalAlign=top;spacingLeft=4;spacingRight=4;overflow=hidden;rotatable=0;points=[[0,0.5],[1,0.5]];portConstraint=eastwest;" vertex="1" parent="BZG0DiaDI3Ibw-3Ss0dE-151">
          <mxGeometry y="398" width="80" height="26" as="geometry" />
        </mxCell>
        <mxCell id="BZG0DiaDI3Ibw-3Ss0dE-168" value="+ train_test_split(self)" style="text;strokeColor=none;fillColor=none;align=left;verticalAlign=top;spacingLeft=4;spacingRight=4;overflow=hidden;rotatable=0;points=[[0,0.5],[1,0.5]];portConstraint=eastwest;" vertex="1" parent="BZG0DiaDI3Ibw-3Ss0dE-151">
          <mxGeometry y="424" width="80" height="26" as="geometry" />
        </mxCell>
        <mxCell id="BZG0DiaDI3Ibw-3Ss0dE-169" value="+ rank(self,table_train,catFeatures,numFeatures,bins)" style="text;strokeColor=none;fillColor=none;align=left;verticalAlign=top;spacingLeft=4;spacingRight=4;overflow=hidden;rotatable=0;points=[[0,0.5],[1,0.5]];portConstraint=eastwest;" vertex="1" parent="BZG0DiaDI3Ibw-3Ss0dE-151">
          <mxGeometry y="450" width="80" height="26" as="geometry" />
        </mxCell>
        <mxCell id="BZG0DiaDI3Ibw-3Ss0dE-170" value="+ estimate(self,catFeatures,bins,numFeatures)" style="text;strokeColor=none;fillColor=none;align=left;verticalAlign=top;spacingLeft=4;spacingRight=4;overflow=hidden;rotatable=0;points=[[0,0.5],[1,0.5]];portConstraint=eastwest;" vertex="1" parent="BZG0DiaDI3Ibw-3Ss0dE-151">
          <mxGeometry y="476" width="80" height="26" as="geometry" />
        </mxCell>
        <mxCell id="BZG0DiaDI3Ibw-3Ss0dE-171" value="+ estimate(self,catFeatures,bins,numFeatures)" style="text;strokeColor=none;fillColor=none;align=left;verticalAlign=top;spacingLeft=4;spacingRight=4;overflow=hidden;rotatable=0;points=[[0,0.5],[1,0.5]];portConstraint=eastwest;" vertex="1" parent="BZG0DiaDI3Ibw-3Ss0dE-151">
          <mxGeometry y="502" width="80" height="26" as="geometry" />
        </mxCell>
        <mxCell id="BZG0DiaDI3Ibw-3Ss0dE-196" value="sqlTemplates.py" style="html=1;" vertex="1" parent="WIyWlLk6GJQsqaUBKTNV-1">
          <mxGeometry x="647.5" y="378" width="110" height="50" as="geometry" />
        </mxCell>
        <mxCell id="BZG0DiaDI3Ibw-3Ss0dE-197" value="Use" style="endArrow=open;endSize=12;dashed=1;html=1;" edge="1" parent="WIyWlLk6GJQsqaUBKTNV-1" source="BZG0DiaDI3Ibw-3Ss0dE-134" target="BZG0DiaDI3Ibw-3Ss0dE-151">
          <mxGeometry width="160" relative="1" as="geometry">
            <mxPoint x="330" y="430" as="sourcePoint" />
            <mxPoint x="539.9857954545455" y="196" as="targetPoint" />
          </mxGeometry>
        </mxCell>
        <mxCell id="BZG0DiaDI3Ibw-3Ss0dE-210" value="SANElib" style="shape=umlFrame;whiteSpace=wrap;html=1;" vertex="1" parent="WIyWlLk6GJQsqaUBKTNV-1">
          <mxGeometry x="20" y="100" width="790" height="540" as="geometry" />
        </mxCell>
        <mxCell id="BZG0DiaDI3Ibw-3Ss0dE-211" value="models" style="shape=umlFrame;whiteSpace=wrap;html=1;" vertex="1" parent="WIyWlLk6GJQsqaUBKTNV-1">
          <mxGeometry x="290" y="130" width="500" height="370" as="geometry" />
        </mxCell>
        <mxCell id="BZG0DiaDI3Ibw-3Ss0dE-212" value="mdh" style="shape=umlFrame;whiteSpace=wrap;html=1;" vertex="1" parent="WIyWlLk6GJQsqaUBKTNV-1">
          <mxGeometry x="390" y="138" width="380" height="212" as="geometry" />
        </mxCell>
        <mxCell id="BZG0DiaDI3Ibw-3Ss0dE-213" value="dtc" style="shape=umlFrame;whiteSpace=wrap;html=1;" vertex="1" parent="WIyWlLk6GJQsqaUBKTNV-1">
          <mxGeometry x="390" y="370" width="380" height="70" as="geometry" />
        </mxCell>
      </root>
    </mxGraphModel>
  </diagram>
</mxfile>
